<svg width="14" height="15" viewBox="0 0 14 15" fill="none" xmlns="http://www.w3.org/2000/svg">
<path d="M5.36894 0.5C4.65697 0.5 3.97417 0.827777 3.47073 1.41122C2.9673 1.99467 2.68447 2.78599 2.68447 3.61111C2.68447 4.43623 2.9673 5.22755 3.47073 5.811C3.97417 6.39445 4.65697 6.72222 5.36894 6.72222C6.0809 6.72222 6.76371 6.39445 7.26714 5.811C7.77058 5.22755 8.05341 4.43623 8.05341 3.61111C8.05341 2.78599 7.77058 1.99467 7.26714 1.41122C6.76371 0.827777 6.0809 0.5 5.36894 0.5ZM10.0668 6.72222C10.0257 6.72134 9.98578 6.73722 9.95387 6.76709C9.92196 6.79696 9.90015 6.8389 9.89227 6.88556L9.76475 7.91222C9.56342 8.01333 9.3688 8.13778 9.1943 8.27778L8.36212 7.88889C8.2883 7.88889 8.20105 7.88889 8.15407 7.99L7.48296 9.33556C7.44269 9.42111 7.45611 9.52222 7.52322 9.58444L8.23461 10.2222C8.20788 10.4806 8.20788 10.7417 8.23461 11L7.52322 11.6378C7.49306 11.6678 7.47264 11.7088 7.46531 11.754C7.45799 11.7993 7.46422 11.8461 7.48296 11.8867L8.15407 13.2322C8.19434 13.3333 8.28159 13.3333 8.36212 13.3333L9.1943 12.9444C9.3688 13.0844 9.55671 13.2167 9.76475 13.31L9.89227 14.3367C9.90569 14.43 9.9728 14.5 10.0668 14.5H11.409C11.4828 14.5 11.5566 14.43 11.5701 14.3367L11.6976 13.31C11.8989 13.2089 12.0801 13.0844 12.2613 12.9444L13.0868 13.3333C13.174 13.3333 13.2613 13.3333 13.3083 13.2322L13.9794 11.8867C13.9981 11.8461 14.0043 11.7993 13.997 11.754C13.9897 11.7088 13.9693 11.6678 13.9391 11.6378L13.221 11C13.2344 10.8678 13.2479 10.7433 13.2479 10.6111C13.2479 10.4789 13.2411 10.3544 13.221 10.2222L13.9324 9.58444C13.9626 9.55447 13.983 9.51346 13.9903 9.46821C13.9976 9.42295 13.9914 9.37616 13.9727 9.33556L13.3015 7.99C13.2613 7.88889 13.174 7.88889 13.0868 7.88889L12.2613 8.27778C12.0801 8.13778 11.8989 8.00556 11.6909 7.91222L11.5633 6.88556C11.5591 6.84125 11.5411 6.80025 11.5127 6.77019C11.4843 6.74014 11.4474 6.72309 11.409 6.72222H10.0668ZM5.36894 8.27778C2.4026 8.27778 0 9.67 0 11.3889V12.9444H6.49641C6.19689 12.2155 6.04101 11.4185 6.04005 10.6111C6.04142 9.82969 6.18791 9.05776 6.46957 8.34778C6.11388 8.30111 5.74476 8.27778 5.36894 8.27778ZM10.7379 9.44444C11.2949 9.44444 11.7445 9.96556 11.7445 10.6111C11.7445 11.2567 11.2949 11.7778 10.7379 11.7778C10.1741 11.7778 9.7312 11.2567 9.7312 10.6111C9.7312 9.96556 10.1808 9.44444 10.7379 9.44444Z" fill="black"/>
</svg>
