<svg width="304" height="304" viewBox="0 0 304 304" fill="none" xmlns="http://www.w3.org/2000/svg">
<path d="M151.5 44C128.798 44 106.679 51.1869 88.3131 64.5307C69.947 77.8744 56.2767 96.69 49.2614 118.281C42.2462 139.871 42.2462 163.129 49.2614 184.719C56.2767 206.31 69.947 225.126 88.3131 238.469L113.588 203.682C102.568 195.675 94.366 184.386 90.1569 171.432C85.9477 158.477 85.9477 144.523 90.1569 131.568C94.366 118.614 102.568 107.325 113.588 99.3184C124.608 91.3121 137.879 87 151.5 87V44Z" fill="#F5CF27"/>
<path d="M233.484 81.9637C223.358 70.0315 210.749 60.454 196.538 53.9005C182.326 47.347 166.855 43.9754 151.205 44.0214L151.332 87.0212C160.721 86.9936 170.004 89.0166 178.531 92.9487C187.058 96.8808 194.623 102.627 200.699 109.787L233.484 81.9637Z" fill="#008000"/>
<path d="M239.892 212.731C253.56 192.999 260.23 169.26 258.841 145.297C257.451 121.334 248.082 98.5256 232.225 80.5055L199.943 108.912C209.457 119.724 215.079 133.409 215.913 147.787C216.746 162.164 212.744 176.408 204.544 188.247L239.892 212.731Z" fill="#FF3F3F"/>
<path d="M87.3574 237.772C98.9239 246.376 112.103 252.566 126.11 255.974C140.118 259.382 154.667 259.937 168.894 257.607C183.12 255.278 196.733 250.11 208.922 242.413C221.11 234.715 231.627 224.645 239.844 212.801L204.515 188.289C199.584 195.395 193.275 201.437 185.961 206.056C178.648 210.674 170.481 213.775 161.945 215.173C153.409 216.571 144.679 216.237 136.274 214.193C127.87 212.148 119.963 208.434 113.023 203.271L87.3574 237.772Z" fill="#509FEC"/>
</svg>
