<svg width="15" height="15" viewBox="0 0 22 13" fill="none" xmlns="http://www.w3.org/2000/svg">
<path d="M0.592388 12.2612C0.967113 12.6337 1.47402 12.8428 2.00239 12.8428C2.53076 12.8428 3.03766 12.6337 3.41239 12.2612L10.5924 5.18119L17.6724 12.2612C18.0471 12.6337 18.554 12.8428 19.0824 12.8428C19.6108 12.8428 20.1177 12.6337 20.4924 12.2612C20.6798 12.0753 20.8286 11.8541 20.9302 11.6103C21.0317 11.3666 21.084 11.1052 21.084 10.8412C21.084 10.5772 21.0317 10.3158 20.9302 10.072C20.8286 9.82832 20.6798 9.60711 20.4924 9.42119L12.0124 0.941189C11.8265 0.753732 11.6053 0.604944 11.3615 0.503407C11.1178 0.401869 10.8564 0.349592 10.5924 0.349592C10.3284 0.349592 10.067 0.401869 9.82323 0.503407C9.57952 0.604944 9.35831 0.753732 9.17239 0.941189L0.592388 9.42119C0.404932 9.60711 0.256144 9.82832 0.154606 10.072C0.0530682 10.3158 0.000789642 10.5772 0.000789642 10.8412C0.000789642 11.1052 0.0530682 11.3666 0.154606 11.6103C0.256144 11.8541 0.404932 12.0753 0.592388 12.2612Z" fill="black"/>
</svg>
