<svg width="22" height="22" viewBox="0 0 22 22" fill="none" xmlns="http://www.w3.org/2000/svg">
<path d="M19.4883 11.7675H15.9895V9.97673H19.4883V11.7675ZM19.4883 12.7907H15.9895V14.5814H19.4883V12.7907ZM19.4883 4.34883H15.9895V6.13951H19.4883V4.34883ZM19.4883 7.16278H15.9895V8.95347H19.4883V7.16278ZM19.4883 15.6046H15.9895V17.3954H19.4883V15.6046ZM21.905 19.1349C21.805 19.667 21.1802 19.6798 20.7629 19.6977H12.9906V22H11.4386L0 19.9535V2.04909L11.5061 0H12.9906V2.03884H20.4955C20.9179 2.05674 21.3827 2.02604 21.75 2.28439C22.0075 2.663 21.9825 3.14396 22 3.57882L21.99 16.8965C21.9775 17.6409 22.0574 18.4007 21.905 19.1349ZM9.16433 15.1212C8.4746 13.6886 7.77236 12.2663 7.08507 10.8337C7.76484 9.43952 8.43463 8.04024 9.1019 6.64092C8.53458 6.66907 7.96726 6.70487 7.40248 6.74582C6.9801 7.79719 6.48776 8.82046 6.15789 9.90768C5.85049 8.88186 5.44315 7.8944 5.07078 6.89418C4.52096 6.92488 3.97113 6.95813 3.42134 6.99138C4.00112 8.3012 4.61845 9.59298 5.18074 10.9104C4.51846 12.1895 3.89868 13.4865 3.25639 14.7733C3.80368 14.7963 4.35101 14.8193 4.89831 14.827C5.28821 13.8088 5.77302 12.8291 6.1129 11.7905C6.41781 12.9058 6.93511 13.9368 7.35999 15.0035C7.96228 15.047 8.56204 15.0854 9.16433 15.1212ZM20.808 3.25378H12.9906V4.34883H14.9899V6.13951H12.9906V7.16278H14.9899V8.95347H12.9906V9.97673H14.9899V11.7675H12.9906V12.7907H14.9899V14.5814H12.9906V15.6046H14.9899V17.3954H12.9906V18.5784H20.808V3.25378Z" fill="#666E7D"/>
</svg>
