<svg width="20" height="20" viewBox="0 0 20 20" fill="none" xmlns="http://www.w3.org/2000/svg">
<g clip-path="url(#clip0_2_353)">
<g clip-path="url(#clip1_2_353)">
<path d="M4.1665 4.58366C4.1665 4.47315 4.2104 4.36717 4.28854 4.28903C4.36668 4.21089 4.47266 4.16699 4.58317 4.16699H7.9165C8.02701 4.16699 8.13299 4.21089 8.21113 4.28903C8.28927 4.36717 8.33317 4.47315 8.33317 4.58366V7.91699C8.33317 8.0275 8.28927 8.13348 8.21113 8.21162C8.13299 8.28976 8.02701 8.33366 7.9165 8.33366H4.58317C4.47266 8.33366 4.36668 8.28976 4.28854 8.21162C4.2104 8.13348 4.1665 8.0275 4.1665 7.91699V4.58366Z" stroke="#403A44" stroke-width="1.5" stroke-linecap="round" stroke-linejoin="round"/>
<path d="M4.1665 12.0837C4.1665 11.9732 4.2104 11.8672 4.28854 11.789C4.36668 11.7109 4.47266 11.667 4.58317 11.667H7.9165C8.02701 11.667 8.13299 11.7109 8.21113 11.789C8.28927 11.8672 8.33317 11.9732 8.33317 12.0837V15.417C8.33317 15.5275 8.28927 15.6335 8.21113 15.7116C8.13299 15.7898 8.02701 15.8337 7.9165 15.8337H4.58317C4.47266 15.8337 4.36668 15.7898 4.28854 15.7116C4.2104 15.6335 4.1665 15.5275 4.1665 15.417V12.0837Z" stroke="#403A44" stroke-width="1.5" stroke-linecap="round" stroke-linejoin="round"/>
<path d="M11.6665 12.5L14.1665 15L16.6665 12.5" stroke="#403A44" stroke-width="1.5" stroke-linecap="round" stroke-linejoin="round"/>
<path d="M14.1665 15V5" stroke="#403A44" stroke-width="1.5" stroke-linecap="round" stroke-linejoin="round"/>
</g>
</g>
<defs>
<clipPath id="clip0_2_353">
<rect width="20" height="20" fill="white"/>
</clipPath>
<clipPath id="clip1_2_353">
<rect width="20" height="20" fill="white"/>
</clipPath>
</defs>
</svg>
