<svg width="17" height="20" viewBox="0 0 17 20" fill="none" xmlns="http://www.w3.org/2000/svg">
<path d="M6.70154 4.20939L7.49527 3.40856V8.00333C7.49527 8.26883 7.60113 8.52344 7.78955 8.71118C7.97797 8.89891 8.23353 9.00437 8.5 9.00437C8.76647 9.00437 9.02203 8.89891 9.21045 8.71118C9.39887 8.52344 9.50473 8.26883 9.50473 8.00333V3.40856L10.2985 4.20939C10.3919 4.30322 10.503 4.37769 10.6254 4.42851C10.7479 4.47933 10.8792 4.5055 11.0118 4.5055C11.1445 4.5055 11.2758 4.47933 11.3982 4.42851C11.5206 4.37769 11.6318 4.30322 11.7252 4.20939C11.8193 4.11633 11.8941 4.00561 11.9451 3.88363C11.9961 3.76164 12.0224 3.6308 12.0224 3.49865C12.0224 3.3665 11.9961 3.23566 11.9451 3.11367C11.8941 2.99169 11.8193 2.88097 11.7252 2.78791L9.21336 0.28531C9.1178 0.194175 9.00513 0.122735 8.8818 0.0750916C8.63719 -0.0250305 8.36282 -0.0250305 8.1182 0.0750916C7.99487 0.122735 7.8822 0.194175 7.78664 0.28531L5.27482 2.78791C5.08563 2.97641 4.97934 3.23207 4.97934 3.49865C4.97934 3.76523 5.08563 4.02089 5.27482 4.20939C5.46402 4.39789 5.72062 4.50379 5.98818 4.50379C6.25574 4.50379 6.51234 4.39789 6.70154 4.20939ZM14.5284 5.56079C14.4334 5.46614 14.3206 5.39106 14.1965 5.33984C14.0723 5.28862 13.9393 5.26225 13.805 5.26225C13.6706 5.26225 13.5376 5.28862 13.4135 5.33984C13.2893 5.39106 13.1766 5.46614 13.0816 5.56079C12.9866 5.65545 12.9112 5.76781 12.8598 5.89148C12.8084 6.01514 12.7819 6.14769 12.7819 6.28154C12.7819 6.4154 12.8084 6.54794 12.8598 6.67161C12.9112 6.79528 12.9866 6.90764 13.0816 7.00229C13.9881 7.90519 14.6056 9.05566 14.8558 10.3082C15.106 11.5607 14.9778 12.8591 14.4874 14.039C13.997 15.219 13.1664 16.2275 12.1006 16.9371C11.0349 17.6467 9.78182 18.0254 8.5 18.0254C7.21818 18.0254 5.96515 17.6467 4.89938 16.9371C3.83362 16.2275 3.003 15.219 2.51258 14.039C2.02215 12.8591 1.89396 11.5607 2.1442 10.3082C2.39445 9.05566 3.01189 7.90519 3.91844 7.00229C4.01344 6.90764 4.0888 6.79528 4.14021 6.67161C4.19162 6.54794 4.21809 6.4154 4.21809 6.28154C4.21809 6.14769 4.19162 6.01514 4.14021 5.89148C4.0888 5.76781 4.01344 5.65545 3.91844 5.56079C3.82344 5.46614 3.71066 5.39106 3.58654 5.33984C3.46242 5.28862 3.32939 5.26225 3.19504 5.26225C3.06069 5.26225 2.92766 5.28862 2.80353 5.33984C2.67941 5.39106 2.56663 5.46614 2.47163 5.56079C1.28798 6.74719 0.483482 8.25626 0.159628 9.89766C-0.164227 11.5391 0.0070681 13.2393 0.651904 14.7838C1.29674 16.3283 2.38623 17.6479 3.78294 18.5763C5.17966 19.5046 6.82103 20 8.5 20C10.179 20 11.8203 19.5046 13.2171 18.5763C14.6138 17.6479 15.7033 16.3283 16.3481 14.7838C16.9929 13.2393 17.1642 11.5391 16.8404 9.89766C16.5165 8.25626 15.712 6.74719 14.5284 5.56079Z" fill="#FF0000"/>
</svg>
