<svg width="13" height="15" viewBox="0 0 13 15" fill="none" xmlns="http://www.w3.org/2000/svg">
<path d="M12.0417 4.67516L7.79173 0.949322C7.40213 0.600854 6.89777 0.408203 6.37507 0.408203C5.85236 0.408203 5.348 0.600854 4.9584 0.949322L0.7084 4.67516C0.483411 4.87637 0.303871 5.12322 0.181735 5.39925C0.0595981 5.67527 -0.00233223 5.97415 6.71458e-05 6.27599V12.4668C6.71458e-05 13.0304 0.22395 13.5709 0.622465 13.9694C1.02098 14.3679 1.56148 14.5918 2.12507 14.5918H10.6251C11.1887 14.5918 11.7292 14.3679 12.1277 13.9694C12.5262 13.5709 12.7501 13.0304 12.7501 12.4668V6.26891C12.7515 5.96826 12.689 5.67075 12.5669 5.39601C12.4448 5.12128 12.2658 4.87558 12.0417 4.67516ZM7.79173 13.1752H4.9584V9.63349C4.9584 9.44563 5.03303 9.26546 5.16587 9.13262C5.2987 8.99978 5.47887 8.92515 5.66673 8.92515H7.0834C7.27126 8.92515 7.45143 8.99978 7.58427 9.13262C7.71711 9.26546 7.79173 9.44563 7.79173 9.63349V13.1752ZM11.3334 12.4668C11.3334 12.6547 11.2588 12.8349 11.1259 12.9677C10.9931 13.1005 10.8129 13.1752 10.6251 13.1752H9.2084V9.63349C9.2084 9.0699 8.98452 8.5294 8.586 8.13089C8.18749 7.73237 7.64699 7.50849 7.0834 7.50849H5.66673C5.10315 7.50849 4.56265 7.73237 4.16413 8.13089C3.76562 8.5294 3.54173 9.0699 3.54173 9.63349V13.1752H2.12507C1.93721 13.1752 1.75704 13.1005 1.6242 12.9677C1.49136 12.8349 1.41673 12.6547 1.41673 12.4668V6.26891C1.41686 6.16833 1.4384 6.06894 1.47993 5.97734C1.52145 5.88574 1.58201 5.80403 1.65757 5.73766L5.90757 2.01891C6.03683 1.90535 6.20301 1.84272 6.37507 1.84272C6.54713 1.84272 6.7133 1.90535 6.84257 2.01891L11.0926 5.73766C11.1681 5.80403 11.2287 5.88574 11.2702 5.97734C11.3117 6.06894 11.3333 6.16833 11.3334 6.26891V12.4668Z" fill="#1640C1"/>
</svg>
