<svg width="16" height="18" viewBox="0 0 16 18" fill="none" xmlns="http://www.w3.org/2000/svg">
<path d="M13.5 9.78105V10.1498L13.8523 10.2587C14.3486 10.4123 14.7676 10.6931 15.0587 11.0521C15.3486 11.4097 15.4985 11.8279 15.5 12.249V13.9979C15.5 14.0741 15.466 14.1632 15.3779 14.2402C15.2877 14.3192 15.1526 14.3728 15 14.3728H11.86H11.4917L11.3825 14.7245C11.189 15.3474 10.7621 15.9111 10.1514 16.3196C9.54003 16.7285 8.78397 16.9545 8 16.9545C7.21603 16.9545 6.45997 16.7285 5.84857 16.3196C5.23785 15.9111 4.81099 15.3474 4.61749 14.7245L4.50825 14.3728H4.14H1C0.847409 14.3728 0.712331 14.3192 0.622118 14.2402C0.534039 14.1632 0.5 14.0741 0.5 13.9979V12.249C0.501531 11.8279 0.65143 11.4097 0.941346 11.0521C1.23238 10.6931 1.6514 10.4123 2.14775 10.2587L2.5 10.1498V9.78105L2.5 6.99955C2.5 6.99948 2.5 6.99941 2.5 6.99934C2.50133 5.89793 2.94759 4.82103 3.77881 3.96147C4.6116 3.10029 5.77665 2.51483 7.07314 2.3231L7.5 2.25998V1.82848V0.874871C7.5 0.798661 7.53404 0.709615 7.62212 0.632556C7.71233 0.553631 7.84741 0.5 8 0.5C8.15259 0.5 8.28767 0.553631 8.37788 0.632556C8.46596 0.709615 8.5 0.798661 8.5 0.874871V1.82848V2.25998L8.92686 2.3231C10.2233 2.51483 11.3884 3.10029 12.2212 3.96147C13.0525 4.82109 13.4987 5.89806 13.5 6.99955V9.78105ZM12 10.1236H12.5V9.62358V6.99897C12.5 5.91503 12.0073 4.89144 11.1577 4.14814C10.3102 3.40672 9.17349 2.99948 8 2.99948C6.82651 2.99948 5.68982 3.40672 4.84235 4.14815C3.99275 4.89144 3.5 5.91503 3.5 6.99897V9.62358V10.1236H4H12ZM6.28 14.3728H5.351L5.86267 15.1482C6.08817 15.4899 6.40665 15.7663 6.78015 15.9563C7.15351 16.1462 7.57294 16.2454 7.99736 16.2477L8.00264 16.2477C8.42706 16.2454 8.84649 16.1462 9.21985 15.9563C9.59336 15.7663 9.91183 15.4899 10.1373 15.1482L10.649 14.3728H9.72H6.28ZM14 13.6231H14.5V13.1231V12.2482C14.5 11.8603 14.3233 11.5043 14.0363 11.2533C13.7515 11.004 13.3778 10.8733 13 10.8733H3C2.62216 10.8733 2.24853 11.004 1.96367 11.2533C1.67668 11.5043 1.5 11.8603 1.5 12.2482V13.1231V13.6231H2H14Z" fill="white" stroke="white"/>
</svg>
