<svg width="119" height="150" viewBox="0 0 119 150" fill="none" xmlns="http://www.w3.org/2000/svg">
<path d="M74.3333 0.833008H15C11.0659 0.833008 7.293 2.3958 4.51121 5.17759C1.72942 7.95938 0.166626 11.7323 0.166626 15.6663V134.333C0.166626 138.267 1.72942 142.04 4.51121 144.822C7.293 147.604 11.0659 149.166 15 149.166H104C107.934 149.166 111.707 147.604 114.489 144.822C117.27 142.04 118.833 138.267 118.833 134.333V45.333L74.3333 0.833008ZM40.9435 106.076C38.6517 108.226 35.2697 109.191 31.3315 109.191C30.5678 109.199 29.8046 109.154 29.0471 109.057V119.633H22.4166V90.4412C25.4089 89.9948 28.4324 89.7914 31.4575 89.833C35.5886 89.833 38.5256 90.6192 40.5059 92.1989C42.3897 93.6971 43.6654 96.152 43.6654 99.0445C43.658 101.952 42.6938 104.407 40.9435 106.076ZM69.1787 116.125C66.0637 118.714 61.3245 119.945 55.532 119.945C52.061 119.945 49.6061 119.722 47.9374 119.5V90.4486C50.9308 90.0117 53.9533 89.8059 56.9783 89.833C62.5927 89.833 66.2417 90.8417 69.0897 92.9925C72.1676 95.2768 74.096 98.9184 74.096 104.147C74.096 109.806 72.0267 113.715 69.1787 116.125ZM96.5833 95.5438H85.221V102.3H95.8416V107.744H85.221V119.641H78.5015V90.0555H96.5833V95.5438ZM74.3333 52.7497H66.9166V15.6663L104 52.7497H74.3333Z" fill="#1640C1"/>
</svg>
