<svg width="16" height="17" viewBox="0 0 16 17" fill="none" xmlns="http://www.w3.org/2000/svg">
<path d="M8.5 7.5V8H9H15C15.1326 8 15.2598 8.05268 15.3536 8.14645C15.4473 8.24021 15.5 8.36739 15.5 8.5C15.5 8.63261 15.4473 8.75979 15.3536 8.85355C15.2598 8.94732 15.1326 9 15 9H9H8.5V9.5V15.5C8.5 15.6326 8.44732 15.7598 8.35355 15.8536C8.25979 15.9473 8.13261 16 8 16C7.86739 16 7.74021 15.9473 7.64645 15.8536C7.55268 15.7598 7.5 15.6326 7.5 15.5V9.5V9H7H1C0.867392 9 0.740215 8.94732 0.646447 8.85355C0.552678 8.75978 0.5 8.63261 0.5 8.5C0.5 8.36739 0.552678 8.24022 0.646447 8.14645C0.740215 8.05268 0.867392 8 1 8H7H7.5V7.5V1.5C7.5 1.36739 7.55268 1.24022 7.64645 1.14645C7.74022 1.05268 7.86739 1 8 1C8.13261 1 8.25978 1.05268 8.35355 1.14645C8.44732 1.24022 8.5 1.36739 8.5 1.5V7.5Z" fill="white" stroke="white"/>
</svg>
