<svg width="23" height="22" viewBox="0 0 23 22" fill="none" xmlns="http://www.w3.org/2000/svg">
<path d="M6 8.8C5.78244 8.8 5.56977 8.86451 5.38887 8.98538C5.20798 9.10625 5.06699 9.27805 4.98373 9.47905C4.90048 9.68005 4.87869 9.90122 4.92114 10.1146C4.96358 10.328 5.06835 10.524 5.22218 10.6778C5.37602 10.8317 5.57202 10.9364 5.7854 10.9789C5.99878 11.0213 6.21995 10.9995 6.42095 10.9163C6.62195 10.833 6.79375 10.692 6.91462 10.5111C7.03549 10.3302 7.1 10.1176 7.1 9.9C7.1 9.60826 6.98411 9.32847 6.77782 9.12218C6.57153 8.91589 6.29174 8.8 6 8.8ZM19.2 4.4H18.1V1.1C18.1 0.808262 17.9841 0.528472 17.7778 0.322183C17.5715 0.115892 17.2917 0 17 0H6C5.70826 0 5.42847 0.115892 5.22218 0.322183C5.01589 0.528472 4.9 0.808262 4.9 1.1V4.4H3.8C2.92479 4.4 2.08542 4.74768 1.46655 5.36655C0.847678 5.98542 0.5 6.82479 0.5 7.7V14.3C0.5 15.1752 0.847678 16.0146 1.46655 16.6335C2.08542 17.2523 2.92479 17.6 3.8 17.6H4.9V20.9C4.9 21.1917 5.01589 21.4715 5.22218 21.6778C5.42847 21.8841 5.70826 22 6 22H17C17.2917 22 17.5715 21.8841 17.7778 21.6778C17.9841 21.4715 18.1 21.1917 18.1 20.9V17.6H19.2C20.0752 17.6 20.9146 17.2523 21.5335 16.6335C22.1523 16.0146 22.5 15.1752 22.5 14.3V7.7C22.5 6.82479 22.1523 5.98542 21.5335 5.36655C20.9146 4.74768 20.0752 4.4 19.2 4.4ZM7.1 2.2H15.9V4.4H7.1V2.2ZM15.9 19.8H7.1V15.4H15.9V19.8ZM20.3 14.3C20.3 14.5917 20.1841 14.8715 19.9778 15.0778C19.7715 15.2841 19.4917 15.4 19.2 15.4H18.1V14.3C18.1 14.0083 17.9841 13.7285 17.7778 13.5222C17.5715 13.3159 17.2917 13.2 17 13.2H6C5.70826 13.2 5.42847 13.3159 5.22218 13.5222C5.01589 13.7285 4.9 14.0083 4.9 14.3V15.4H3.8C3.50826 15.4 3.22847 15.2841 3.02218 15.0778C2.81589 14.8715 2.7 14.5917 2.7 14.3V7.7C2.7 7.40826 2.81589 7.12847 3.02218 6.92218C3.22847 6.71589 3.50826 6.6 3.8 6.6H19.2C19.4917 6.6 19.7715 6.71589 19.9778 6.92218C20.1841 7.12847 20.3 7.40826 20.3 7.7V14.3Z" fill="#6774BD"/>
</svg>
