<svg width="16" height="16" viewBox="0 0 16 16" fill="none" xmlns="http://www.w3.org/2000/svg">
<path d="M8.00099 5.1C7.77226 5.09927 7.54738 5.1589 7.34906 5.27287C7.15045 5.38702 6.98552 5.55162 6.87099 5.75L6.86578 5.75901L6.86096 5.76824C6.84221 5.80409 6.81639 5.83577 6.78507 5.86139L7.10164 6.24841L6.78507 5.86139C6.75375 5.88701 6.71758 5.90603 6.67872 5.9173C6.63986 5.92857 6.59913 5.93187 6.55896 5.92699C6.51879 5.92211 6.48003 5.90916 6.445 5.88891C6.40997 5.86866 6.3794 5.84154 6.35513 5.80917C6.33085 5.7768 6.31337 5.73985 6.30375 5.70055C6.29412 5.66125 6.29255 5.62041 6.29911 5.58049C6.30568 5.54056 6.32025 5.50238 6.34196 5.46824L6.34768 5.45924L6.35301 5.45C6.51988 5.16098 6.75992 4.92102 7.04899 4.75425C7.33754 4.58777 7.66478 4.5001 7.99788 4.5C8.44283 4.50386 8.87233 4.66377 9.21148 4.95188C9.55108 5.24036 9.77849 5.63903 9.85394 6.07818C9.9294 6.51733 9.84811 6.96904 9.62428 7.35433C9.40045 7.73963 9.04832 8.034 8.62946 8.18598L8.3 8.30552V8.656V8.8C8.3 8.87956 8.2684 8.95587 8.21213 9.01213C8.15587 9.06839 8.07957 9.1 8 9.1C7.92044 9.1 7.84413 9.06839 7.78787 9.01213C7.73161 8.95587 7.7 8.87956 7.7 8.8V8C7.7 7.92043 7.73161 7.84413 7.78787 7.78787C7.84413 7.7316 7.92044 7.7 8 7.7C8.34478 7.7 8.67544 7.56303 8.91924 7.31924C9.16304 7.07544 9.3 6.74478 9.3 6.4C9.3 6.05522 9.16304 5.72456 8.91924 5.48076C8.67568 5.2372 8.34542 5.10026 8.00099 5.1ZM8.00099 5.1C8.00066 5.1 8.00033 5.1 8 5.1V5.6L8.00199 5.1C8.00166 5.1 8.00133 5.1 8.00099 5.1ZM7.71465 11.1632C7.71349 11.1475 7.71296 11.1317 7.71307 11.116L7.72552 11.0915L7.73689 11.0584C7.73966 11.0503 7.74338 11.0426 7.74797 11.0354C7.76243 11.0152 7.77787 10.9958 7.79422 10.9771C7.82055 10.9522 7.85117 10.9324 7.88463 10.9184C7.92119 10.9032 7.9604 10.8954 8 10.8954C8.0396 10.8954 8.07882 10.9032 8.11538 10.9184C8.15193 10.9337 8.18511 10.956 8.213 10.9841L8.21301 10.9841C8.24081 11.0121 8.26281 11.0454 8.27774 11.0819C8.29267 11.1185 8.30024 11.1576 8.30001 11.1971L8.29995 11.2078L8.30034 11.2185C8.30178 11.2573 8.29566 11.296 8.28234 11.3325L8.28185 11.3338C8.27087 11.3642 8.25335 11.3917 8.23054 11.4145C8.20773 11.4373 8.18018 11.4549 8.14985 11.4658L8.13364 11.4717L8.11787 11.4787C8.08578 11.4929 8.05109 11.5002 8.016 11.5002C7.98092 11.5002 7.94622 11.4929 7.91413 11.4787L7.89837 11.4717L7.88216 11.4658C7.85182 11.4549 7.82427 11.4373 7.80147 11.4145C7.77865 11.3917 7.76114 11.3642 7.75016 11.3338L7.7422 11.3118L7.73222 11.2907C7.72076 11.2664 7.71514 11.2397 7.71584 11.2129L7.71648 11.188L7.71465 11.1632ZM3.83323 1.76398C5.06659 0.939867 6.51664 0.5 8 0.5C8.98492 0.5 9.96019 0.693993 10.8701 1.0709C11.7801 1.44781 12.6069 2.00026 13.3033 2.6967C13.9997 3.39314 14.5522 4.21993 14.9291 5.12987C15.306 6.03981 15.5 7.01508 15.5 8C15.5 9.48336 15.0601 10.9334 14.236 12.1668C13.4119 13.4001 12.2406 14.3614 10.8701 14.9291C9.49968 15.4967 7.99168 15.6453 6.53683 15.3559C5.08197 15.0665 3.7456 14.3522 2.6967 13.3033C1.64781 12.2544 0.933503 10.918 0.644114 9.46317C0.354725 8.00832 0.50325 6.50032 1.07091 5.12987C1.63856 3.75943 2.59986 2.58809 3.83323 1.76398ZM4.16657 13.7371C5.30127 14.4953 6.63531 14.9 8 14.9C9.83 14.9 11.585 14.173 12.879 12.879C14.173 11.585 14.9 9.82999 14.9 8C14.9 6.63531 14.4953 5.30126 13.7371 4.16656C12.979 3.03187 11.9013 2.14748 10.6405 1.62523C9.37971 1.10299 7.99235 0.966343 6.65388 1.23258C5.31541 1.49882 4.08595 2.15598 3.12097 3.12096C2.15598 4.08594 1.49882 5.31541 1.23258 6.65387C0.966347 7.99234 1.10299 9.3797 1.62523 10.6405C2.14748 11.9013 3.03187 12.979 4.16657 13.7371Z" fill="white" stroke="white"/>
</svg>
