<svg width="15" height="15" viewBox="0 0 15 15" fill="none" xmlns="http://www.w3.org/2000/svg">
<path d="M12.4582 7.49996H7.49984V2.54163C7.49984 2.11663 7.2165 1.83329 6.7915 1.83329C3.24984 1.83329 0.416504 4.66663 0.416504 8.20829C0.416504 11.75 3.24984 14.5833 6.7915 14.5833C10.3332 14.5833 13.1665 11.75 13.1665 8.20829C13.1665 7.78329 12.8832 7.49996 12.4582 7.49996ZM7.49984 13.0958C4.80817 13.5208 2.25817 11.6083 1.904 8.91663C1.479 6.22496 3.3915 3.67496 6.08317 3.32079V8.20829C6.08317 8.63329 6.3665 8.91663 6.7915 8.91663H11.679C11.3957 11.1125 9.69567 12.8125 7.49984 13.0958ZM9.62484 0.416626C9.19984 0.416626 8.9165 0.699959 8.9165 1.12496V5.37496C8.9165 5.79996 9.19984 6.08329 9.62484 6.08329H13.8748C14.2998 6.08329 14.5832 5.79996 14.5832 5.37496C14.5832 2.61246 12.3873 0.416626 9.62484 0.416626ZM10.3332 4.66663V1.90413C11.7498 2.18746 12.8123 3.24996 13.0957 4.66663H10.3332Z" fill="#1640C1"/>
</svg>
