<svg width="582" height="222" viewBox="0 0 582 222" fill="none" xmlns="http://www.w3.org/2000/svg">
<path opacity="0.16" d="M14.5229 101.718L1.40479 105.224V221.529H580.242V1.71094L567.944 7.53361L554.826 19.3605L548.677 24.8127H540.478C538.291 25.7213 533.755 27.5387 533.099 27.5387C532.443 27.5387 526.13 56.6746 524.08 57.2198L506.453 58.8555L498.254 67.5373L481.856 79.9098L473.247 78.2742L460.949 50.947H448.241L437.582 47.1306C433.483 46.5853 425.12 45.4949 424.464 45.4949C423.808 45.4949 418.452 37.5554 415.856 37.0102H409.297L393.719 38.6458L380.191 40.2814L374.042 44.0979L355.594 49.3114L346.166 50.947L335.507 53.6731L325.258 63.2172H320.749L308.451 61.5815L296.563 56.6746L286.314 53.9486H280.165L269.506 45.5675L254.339 47.2032H239.991L225.643 49.9292L211.295 56.7991L200.636 65.8602L189.158 67.4958L173.58 65.8602L161.282 78.2742L148.984 97.9018L137.505 96.2662L121.928 74.9836L108.809 72.8027L95.6913 74.9836H82.9831L69.4551 76.6192H55.5171L41.579 85.3619L28.051 78.2742L14.5229 101.718Z" fill="url(#paint0_linear_2_9357)"/>
<path d="M1.40479 105.224L14.5229 101.718L28.051 78.2742L41.579 85.3619L55.5171 76.6192H69.4551L82.9831 74.9836H95.6913L108.809 72.8027L121.928 74.9836L137.505 96.2661L148.984 97.9018L161.282 78.2742L173.58 65.8602L189.158 67.4958L200.636 65.8602L211.295 56.7991L225.643 49.9292L239.991 47.2032H254.339L269.506 45.5675L280.165 53.9486H286.314L296.563 56.6746L308.451 61.5815L320.749 63.2172H325.258L335.507 53.6731L346.166 50.947L355.594 49.3114L374.042 44.0979L380.191 40.2814L393.719 38.6458L409.297 37.0102H415.856C418.452 37.5554 423.808 45.4949 424.464 45.4949C425.12 45.4949 433.483 46.5853 437.582 47.1306L448.241 50.947H460.949L473.247 78.2742C476.609 78.913 478.494 79.2711 481.856 79.9098L498.254 67.5373L506.453 58.8555L524.08 57.2198C526.13 56.6746 532.443 27.5387 533.099 27.5387C533.755 27.5387 538.291 25.7213 540.478 24.8127H548.677L554.826 19.3605L567.944 7.53361L580.242 1.71094" stroke="#008000" stroke-width="1.83477" stroke-linecap="round" stroke-linejoin="round"/>
<path d="M306.975 61.9561V221.782" stroke="#008000" stroke-width="1.19273" stroke-dasharray="2.39 2.39"/>
<defs>
<linearGradient id="paint0_linear_2_9357" x1="290.823" y1="1.71094" x2="290.823" y2="221.529" gradientUnits="userSpaceOnUse">
<stop stop-color="#35BD7A"/>
<stop offset="1" stop-color="#185738" stop-opacity="0"/>
</linearGradient>
</defs>
</svg>
