<svg width="20" height="20" viewBox="0 0 20 20" fill="none" xmlns="http://www.w3.org/2000/svg">
<g clip-path="url(#clip0_1949_6499)">
<path d="M8.3335 11.6664L17.5002 2.49976" stroke="#403A44" stroke-width="1.5" stroke-linecap="round" stroke-linejoin="round"/>
<path d="M17.4998 2.49976L12.0831 17.4998C12.0466 17.5795 11.9879 17.6472 11.914 17.6946C11.8402 17.742 11.7542 17.7671 11.6665 17.7671C11.5787 17.7671 11.4928 17.742 11.4189 17.6946C11.3451 17.6472 11.2864 17.5795 11.2498 17.4998L8.33315 11.6664L2.49981 8.74976C2.42003 8.71319 2.35242 8.65449 2.30502 8.58063C2.25762 8.50677 2.23242 8.42085 2.23242 8.33309C2.23242 8.24533 2.25762 8.15941 2.30502 8.08555C2.35242 8.01168 2.42003 7.95298 2.49981 7.91642L17.4998 2.49976Z" stroke="#403A44" stroke-width="1.5" stroke-linecap="round" stroke-linejoin="round"/>
</g>
<defs>
<clipPath id="clip0_1949_6499">
<rect width="20" height="20" fill="#4e48528f" transform="translate(0 -0.000244141)"/>
</clipPath>
</defs>
</svg>
