<svg width="17" height="17" viewBox="0 0 17 17" fill="none" xmlns="http://www.w3.org/2000/svg">
<path d="M11.3333 14.1667H5.66667C5.10308 14.1667 4.56258 13.9429 4.16406 13.5444C3.76555 13.1458 3.54167 12.6053 3.54167 12.0417V4.95842C3.54167 4.77055 3.46704 4.59039 3.3342 4.45755C3.20136 4.32471 3.02119 4.25008 2.83333 4.25008C2.64547 4.25008 2.4653 4.32471 2.33247 4.45755C2.19963 4.59039 2.125 4.77055 2.125 4.95842V12.0417C2.125 12.9811 2.49814 13.8819 3.16233 14.5461C3.82652 15.2103 4.72736 15.5834 5.66667 15.5834H11.3333C11.5212 15.5834 11.7014 15.5088 11.8342 15.3759C11.967 15.2431 12.0417 15.0629 12.0417 14.8751C12.0417 14.6872 11.967 14.5071 11.8342 14.3742C11.7014 14.2414 11.5212 14.1667 11.3333 14.1667ZM14.875 6.33258C14.8676 6.26751 14.8534 6.2034 14.8325 6.14133V6.07758C14.7984 6.00475 14.753 5.9378 14.6979 5.87925L10.4479 1.62925C10.3894 1.57415 10.3224 1.52872 10.2496 1.49466H10.1858L9.95917 1.41675H7.08333C6.51975 1.41675 5.97925 1.64063 5.58073 2.03915C5.18222 2.43766 4.95833 2.97816 4.95833 3.54175V10.6251C4.95833 11.1887 5.18222 11.7292 5.58073 12.1277C5.97925 12.5262 6.51975 12.7501 7.08333 12.7501H12.75C13.3136 12.7501 13.8541 12.5262 14.2526 12.1277C14.6511 11.7292 14.875 11.1887 14.875 10.6251V6.37508C14.875 6.37508 14.875 6.37508 14.875 6.33258ZM10.625 3.83216L12.4596 5.66675H11.3333C11.1455 5.66675 10.9653 5.59212 10.8325 5.45928C10.6996 5.32644 10.625 5.14628 10.625 4.95842V3.83216ZM13.4583 10.6251C13.4583 10.8129 13.3837 10.9931 13.2509 11.1259C13.118 11.2588 12.9379 11.3334 12.75 11.3334H7.08333C6.89547 11.3334 6.7153 11.2588 6.58247 11.1259C6.44963 10.9931 6.375 10.8129 6.375 10.6251V3.54175C6.375 3.35389 6.44963 3.17372 6.58247 3.04088C6.7153 2.90804 6.89547 2.83341 7.08333 2.83341H9.20833V4.95842C9.20833 5.522 9.43222 6.0625 9.83073 6.46102C10.2292 6.85953 10.7697 7.08342 11.3333 7.08342H13.4583V10.6251Z" fill="#1640C1"/>
</svg>
