<svg width="17" height="17" viewBox="0 0 17 17" fill="none" xmlns="http://www.w3.org/2000/svg">
<path d="M2.12484 4.95841H14.8748C15.0627 4.95841 15.2429 4.88379 15.3757 4.75095C15.5085 4.61811 15.5832 4.43794 15.5832 4.25008C15.5832 4.06222 15.5085 3.88205 15.3757 3.74921C15.2429 3.61638 15.0627 3.54175 14.8748 3.54175H2.12484C1.93698 3.54175 1.75681 3.61638 1.62397 3.74921C1.49113 3.88205 1.4165 4.06222 1.4165 4.25008C1.4165 4.43794 1.49113 4.61811 1.62397 4.75095C1.75681 4.88379 1.93698 4.95841 2.12484 4.95841ZM2.12484 7.79175H9.20817C9.39603 7.79175 9.5762 7.71712 9.70904 7.58428C9.84188 7.45144 9.9165 7.27128 9.9165 7.08342C9.9165 6.89555 9.84188 6.71539 9.70904 6.58255C9.5762 6.44971 9.39603 6.37508 9.20817 6.37508H2.12484C1.93698 6.37508 1.75681 6.44971 1.62397 6.58255C1.49113 6.71539 1.4165 6.89555 1.4165 7.08342C1.4165 7.27128 1.49113 7.45144 1.62397 7.58428C1.75681 7.71712 1.93698 7.79175 2.12484 7.79175ZM15.4203 6.86383C15.3603 6.79262 15.2869 6.73393 15.2042 6.69111C15.1215 6.6483 15.0313 6.62219 14.9385 6.6143C14.8457 6.60641 14.7523 6.61687 14.6636 6.64511C14.5749 6.67334 14.4926 6.71878 14.4215 6.77883L13.0048 7.95466C12.9246 8.02113 12.8601 8.10447 12.8157 8.19875C12.7714 8.29302 12.7485 8.39591 12.7485 8.50008C12.7485 8.60425 12.7714 8.70714 12.8157 8.80142C12.8601 8.89569 12.9246 8.97903 13.0048 9.0455L14.4215 10.2213C14.548 10.3295 14.7084 10.3897 14.8748 10.3913C14.9789 10.3915 15.0817 10.3687 15.176 10.3247C15.2703 10.2806 15.3537 10.2163 15.4203 10.1363C15.4799 10.0648 15.5248 9.98212 15.5525 9.89315C15.5801 9.80418 15.59 9.71063 15.5814 9.61785C15.5729 9.52508 15.5461 9.4349 15.5026 9.35249C15.4592 9.27008 15.3999 9.19705 15.3282 9.13758L14.5632 8.50008L15.3282 7.86258C15.3999 7.80312 15.4592 7.73009 15.5026 7.64768C15.5461 7.56526 15.5729 7.47509 15.5814 7.38231C15.59 7.28954 15.5801 7.19598 15.5525 7.10702C15.5248 7.01805 15.4799 6.93541 15.4203 6.86383ZM14.8748 12.0417H2.12484C1.93698 12.0417 1.75681 12.1164 1.62397 12.2492C1.49113 12.3821 1.4165 12.5622 1.4165 12.7501C1.4165 12.9379 1.49113 13.1181 1.62397 13.2509C1.75681 13.3838 1.93698 13.4584 2.12484 13.4584H14.8748C15.0627 13.4584 15.2429 13.3838 15.3757 13.2509C15.5085 13.1181 15.5832 12.9379 15.5832 12.7501C15.5832 12.5622 15.5085 12.3821 15.3757 12.2492C15.2429 12.1164 15.0627 12.0417 14.8748 12.0417ZM2.12484 10.6251H9.20817C9.39603 10.6251 9.5762 10.5505 9.70904 10.4176C9.84188 10.2848 9.9165 10.1046 9.9165 9.91675C9.9165 9.72889 9.84188 9.54872 9.70904 9.41588C9.5762 9.28304 9.39603 9.20842 9.20817 9.20842H2.12484C1.93698 9.20842 1.75681 9.28304 1.62397 9.41588C1.49113 9.54872 1.4165 9.72889 1.4165 9.91675C1.4165 10.1046 1.49113 10.2848 1.62397 10.4176C1.75681 10.5505 1.93698 10.6251 2.12484 10.6251Z" fill="#1640C1"/>
</svg>
