<svg width="17" height="17" viewBox="0 0 17 17" fill="none" xmlns="http://www.w3.org/2000/svg">
<path d="M6.51115 4.97791C6.37923 5.11063 6.30518 5.29015 6.30518 5.47729C6.30518 5.66442 6.37923 5.84395 6.51115 5.97666L9.01865 8.51958L6.51115 11.0271C6.37923 11.1598 6.30518 11.3393 6.30518 11.5265C6.30518 11.7136 6.37923 11.8931 6.51115 12.0258C6.577 12.0922 6.65534 12.1449 6.74166 12.1809C6.82798 12.2168 6.92056 12.2354 7.01407 12.2354C7.10758 12.2354 7.20016 12.2168 7.28648 12.1809C7.3728 12.1449 7.45114 12.0922 7.51699 12.0258L10.5203 9.02249C10.5867 8.95665 10.6394 8.8783 10.6754 8.79199C10.7113 8.70567 10.7298 8.61309 10.7298 8.51958C10.7298 8.42607 10.7113 8.33349 10.6754 8.24717C10.6394 8.16085 10.5867 8.08251 10.5203 8.01666L7.51699 4.97791C7.45114 4.91152 7.3728 4.85882 7.28648 4.82286C7.20016 4.7869 7.10758 4.76839 7.01407 4.76839C6.92056 4.76839 6.82798 4.7869 6.74166 4.82286C6.65534 4.85882 6.577 4.91152 6.51115 4.97791Z" fill="black"/>
</svg>
