<svg width="34" height="34" viewBox="0 0 34 34" fill="none" xmlns="http://www.w3.org/2000/svg">
<path d="M18.4165 19.833H12.7498C12.3741 19.833 12.0138 19.9823 11.7481 20.2479C11.4824 20.5136 11.3332 20.874 11.3332 21.2497C11.3332 21.6254 11.4824 21.9857 11.7481 22.2514C12.0138 22.5171 12.3741 22.6663 12.7498 22.6663H18.4165C18.7922 22.6663 19.1526 22.5171 19.4182 22.2514C19.6839 21.9857 19.8332 21.6254 19.8332 21.2497C19.8332 20.874 19.6839 20.5136 19.4182 20.2479C19.1526 19.9823 18.7922 19.833 18.4165 19.833ZM24.0832 5.66634H22.4115C22.1192 4.83965 21.5784 4.12359 20.8632 3.61634C20.148 3.10909 19.2933 2.83547 18.4165 2.83301H15.5832C14.7063 2.83547 13.8517 3.10909 13.1365 3.61634C12.4213 4.12359 11.8804 4.83965 11.5882 5.66634H9.9165C8.78933 5.66634 7.70833 6.11411 6.9113 6.91114C6.11427 7.70817 5.6665 8.78917 5.6665 9.91634V26.9163C5.6665 28.0435 6.11427 29.1245 6.9113 29.9215C7.70833 30.7186 8.78933 31.1663 9.9165 31.1663H24.0832C25.2103 31.1663 26.2913 30.7186 27.0884 29.9215C27.8854 29.1245 28.3332 28.0435 28.3332 26.9163V9.91634C28.3332 8.78917 27.8854 7.70817 27.0884 6.91114C26.2913 6.11411 25.2103 5.66634 24.0832 5.66634ZM14.1665 7.08301C14.1665 6.70728 14.3158 6.34695 14.5814 6.08127C14.8471 5.8156 15.2074 5.66634 15.5832 5.66634H18.4165C18.7922 5.66634 19.1526 5.8156 19.4182 6.08127C19.6839 6.34695 19.8332 6.70728 19.8332 7.08301V8.49967H14.1665V7.08301ZM25.4998 26.9163C25.4998 27.2921 25.3506 27.6524 25.0849 27.9181C24.8192 28.1838 24.4589 28.333 24.0832 28.333H9.9165C9.54078 28.333 9.18045 28.1838 8.91477 27.9181C8.64909 27.6524 8.49984 27.2921 8.49984 26.9163V9.91634C8.49984 9.54062 8.64909 9.18028 8.91477 8.91461C9.18045 8.64893 9.54078 8.49967 9.9165 8.49967H11.3332V9.91634C11.3332 10.2921 11.4824 10.6524 11.7481 10.9181C12.0138 11.1838 12.3741 11.333 12.7498 11.333H21.2498C21.6256 11.333 21.9859 11.1838 22.2516 10.9181C22.5172 10.6524 22.6665 10.2921 22.6665 9.91634V8.49967H24.0832C24.4589 8.49967 24.8192 8.64893 25.0849 8.91461C25.3506 9.18028 25.4998 9.54062 25.4998 9.91634V26.9163ZM21.2498 14.1663H12.7498C12.3741 14.1663 12.0138 14.3156 11.7481 14.5813C11.4824 14.847 11.3332 15.2073 11.3332 15.583C11.3332 15.9587 11.4824 16.3191 11.7481 16.5847C12.0138 16.8504 12.3741 16.9997 12.7498 16.9997H21.2498C21.6256 16.9997 21.9859 16.8504 22.2516 16.5847C22.5172 16.3191 22.6665 15.9587 22.6665 15.583C22.6665 15.2073 22.5172 14.847 22.2516 14.5813C21.9859 14.3156 21.6256 14.1663 21.2498 14.1663Z" fill="white"/>
</svg>
