<svg width="21" height="20" viewBox="0 0 21 20" fill="none" xmlns="http://www.w3.org/2000/svg">
<path d="M17.8299 10.0003C17.6089 10.0003 17.3969 10.0881 17.2407 10.2444C17.0844 10.4006 16.9966 10.6126 16.9966 10.8336V15.8336C16.9966 16.0546 16.9088 16.2666 16.7525 16.4229C16.5962 16.5791 16.3843 16.6669 16.1632 16.6669H4.49658C4.27557 16.6669 4.06361 16.5791 3.90733 16.4229C3.75105 16.2666 3.66325 16.0546 3.66325 15.8336V4.16694C3.66325 3.94593 3.75105 3.73397 3.90733 3.57769C4.06361 3.42141 4.27557 3.33361 4.49658 3.33361H9.49658C9.7176 3.33361 9.92956 3.24581 10.0858 3.08953C10.2421 2.93325 10.3299 2.72129 10.3299 2.50027C10.3299 2.27926 10.2421 2.0673 10.0858 1.91102C9.92956 1.75474 9.7176 1.66694 9.49658 1.66694H4.49658C3.83354 1.66694 3.19766 1.93033 2.72882 2.39917C2.25997 2.86802 1.99658 3.5039 1.99658 4.16694V15.8336C1.99658 16.4966 2.25997 17.1325 2.72882 17.6014C3.19766 18.0702 3.83354 18.3336 4.49658 18.3336H16.1632C16.8263 18.3336 17.4622 18.0702 17.931 17.6014C18.3999 17.1325 18.6632 16.4966 18.6632 15.8336V10.8336C18.6632 10.6126 18.5755 10.4006 18.4192 10.2444C18.2629 10.0881 18.0509 10.0003 17.8299 10.0003ZM5.32992 10.6336V14.1669C5.32992 14.388 5.41771 14.5999 5.57399 14.7562C5.73027 14.9125 5.94224 15.0003 6.16325 15.0003H9.69658C9.80625 15.0009 9.91497 14.9799 10.0165 14.9384C10.118 14.8969 10.2104 14.8358 10.2882 14.7586L16.0549 8.98361L18.4216 6.66694C18.4997 6.58947 18.5617 6.4973 18.604 6.39576C18.6463 6.29421 18.6681 6.18528 18.6681 6.07527C18.6681 5.96526 18.6463 5.85634 18.604 5.75479C18.5617 5.65324 18.4997 5.56108 18.4216 5.48361L14.8882 1.90861C14.8108 1.8305 14.7186 1.76851 14.6171 1.7262C14.5155 1.68389 14.4066 1.66211 14.2966 1.66211C14.1866 1.66211 14.0777 1.68389 13.9761 1.7262C13.8746 1.76851 13.7824 1.8305 13.7049 1.90861L11.3549 4.26694L5.57158 10.0419C5.49435 10.1198 5.43324 10.2122 5.39177 10.3137C5.3503 10.4152 5.32928 10.5239 5.32992 10.6336ZM14.2966 3.67527L16.6549 6.03361L15.4716 7.21694L13.1132 4.85861L14.2966 3.67527ZM6.99658 10.9753L11.9382 6.03361L14.2966 8.39194L9.35492 13.3336H6.99658V10.9753Z" fill="#424866"/>
</svg>
