<svg width="20" height="20" viewBox="0 0 20 20" fill="none" xmlns="http://www.w3.org/2000/svg">
<path d="M17.4998 11.667C17.2788 11.667 17.0669 11.7548 16.9106 11.9111C16.7543 12.0674 16.6665 12.2793 16.6665 12.5003V15.8337C16.6665 16.0547 16.5787 16.2666 16.4224 16.4229C16.2661 16.5792 16.0542 16.667 15.8332 16.667H4.1665C3.94549 16.667 3.73353 16.5792 3.57725 16.4229C3.42097 16.2666 3.33317 16.0547 3.33317 15.8337V12.5003C3.33317 12.2793 3.24537 12.0674 3.08909 11.9111C2.93281 11.7548 2.72085 11.667 2.49984 11.667C2.27882 11.667 2.06686 11.7548 1.91058 11.9111C1.7543 12.0674 1.6665 12.2793 1.6665 12.5003V15.8337C1.6665 16.4967 1.9299 17.1326 2.39874 17.6014C2.86758 18.0703 3.50346 18.3337 4.1665 18.3337H15.8332C16.4962 18.3337 17.1321 18.0703 17.6009 17.6014C18.0698 17.1326 18.3332 16.4967 18.3332 15.8337V12.5003C18.3332 12.2793 18.2454 12.0674 18.0891 11.9111C17.9328 11.7548 17.7208 11.667 17.4998 11.667ZM9.40817 13.092C9.48742 13.1679 9.58088 13.2273 9.68317 13.267C9.78292 13.3111 9.89078 13.3339 9.99984 13.3339C10.1089 13.3339 10.2168 13.3111 10.3165 13.267C10.4188 13.2273 10.5123 13.1679 10.5915 13.092L13.9248 9.75866C14.0818 9.60174 14.1699 9.38891 14.1699 9.16699C14.1699 8.94507 14.0818 8.73224 13.9248 8.57533C13.7679 8.41841 13.5551 8.33025 13.3332 8.33025C13.1113 8.33025 12.8984 8.41841 12.7415 8.57533L10.8332 10.492V2.50033C10.8332 2.27931 10.7454 2.06735 10.5891 1.91107C10.4328 1.75479 10.2209 1.66699 9.99984 1.66699C9.77882 1.66699 9.56686 1.75479 9.41058 1.91107C9.2543 2.06735 9.1665 2.27931 9.1665 2.50033V10.492L7.25817 8.57533C7.18047 8.49763 7.08823 8.43599 6.98671 8.39394C6.88519 8.35189 6.77639 8.33025 6.6665 8.33025C6.55662 8.33025 6.44781 8.35189 6.3463 8.39394C6.24478 8.43599 6.15254 8.49763 6.07484 8.57533C5.99714 8.65302 5.9355 8.74527 5.89345 8.84678C5.8514 8.9483 5.82976 9.05711 5.82976 9.16699C5.82976 9.27687 5.8514 9.38568 5.89345 9.4872C5.9355 9.58872 5.99714 9.68096 6.07484 9.75866L9.40817 13.092Z" fill="#424866"/>
</svg>
