<svg width="21" height="20" viewBox="0 0 21 20" fill="none" xmlns="http://www.w3.org/2000/svg">
<path d="M6.16325 8.33366C5.99843 8.33366 5.83731 8.38253 5.70027 8.4741C5.56323 8.56567 5.45642 8.69582 5.39335 8.84809C5.33028 9.00036 5.31377 9.16792 5.34593 9.32957C5.37808 9.49122 5.45745 9.6397 5.57399 9.75625C5.69054 9.87279 5.83902 9.95216 6.00067 9.98431C6.16232 10.0165 6.32988 9.99996 6.48215 9.93689C6.63442 9.87382 6.76457 9.76701 6.85614 9.62997C6.94771 9.49293 6.99658 9.33181 6.99658 9.16699C6.99658 8.94598 6.90878 8.73402 6.7525 8.57774C6.59622 8.42146 6.38426 8.33366 6.16325 8.33366ZM16.1632 5.00033H15.3299V2.50033C15.3299 2.27931 15.2421 2.06735 15.0858 1.91107C14.9296 1.75479 14.7176 1.66699 14.4966 1.66699H6.16325C5.94223 1.66699 5.73027 1.75479 5.57399 1.91107C5.41771 2.06735 5.32992 2.27931 5.32992 2.50033V5.00033H4.49658C3.83354 5.00033 3.19766 5.26372 2.72882 5.73256C2.25997 6.2014 1.99658 6.83728 1.99658 7.50033V12.5003C1.99658 13.1634 2.25997 13.7993 2.72882 14.2681C3.19766 14.7369 3.83354 15.0003 4.49658 15.0003H5.32992V17.5003C5.32992 17.7213 5.41771 17.9333 5.57399 18.0896C5.73027 18.2459 5.94223 18.3337 6.16325 18.3337H14.4966C14.7176 18.3337 14.9296 18.2459 15.0858 18.0896C15.2421 17.9333 15.3299 17.7213 15.3299 17.5003V15.0003H16.1632C16.8263 15.0003 17.4622 14.7369 17.931 14.2681C18.3999 13.7993 18.6632 13.1634 18.6632 12.5003V7.50033C18.6632 6.83728 18.3999 6.2014 17.931 5.73256C17.4622 5.26372 16.8263 5.00033 16.1632 5.00033ZM6.99658 3.33366H13.6632V5.00033H6.99658V3.33366ZM13.6632 16.667H6.99658V13.3337H13.6632V16.667ZM16.9966 12.5003C16.9966 12.7213 16.9088 12.9333 16.7525 13.0896C16.5962 13.2459 16.3843 13.3337 16.1632 13.3337H15.3299V12.5003C15.3299 12.2793 15.2421 12.0674 15.0858 11.9111C14.9296 11.7548 14.7176 11.667 14.4966 11.667H6.16325C5.94223 11.667 5.73027 11.7548 5.57399 11.9111C5.41771 12.0674 5.32992 12.2793 5.32992 12.5003V13.3337H4.49658C4.27557 13.3337 4.06361 13.2459 3.90733 13.0896C3.75105 12.9333 3.66325 12.7213 3.66325 12.5003V7.50033C3.66325 7.27931 3.75105 7.06735 3.90733 6.91107C4.06361 6.75479 4.27557 6.66699 4.49658 6.66699H16.1632C16.3843 6.66699 16.5962 6.75479 16.7525 6.91107C16.9088 7.06735 16.9966 7.27931 16.9966 7.50033V12.5003Z" fill="#424866"/>
</svg>
