<svg width="16" height="16" viewBox="0 0 16 16" fill="none" xmlns="http://www.w3.org/2000/svg">
<path d="M3.08911 12.4229L2.96008 12.7367L3.20407 12.9726C4.49056 14.2159 6.20952 14.9122 7.99924 14.9149L8.00076 14.9149C9.79048 14.9122 11.5094 14.2159 12.7959 12.9726L13.0399 12.7367L12.9109 12.4229C12.5108 11.4499 11.8303 10.6177 10.9559 10.0321C10.0815 9.44645 9.05261 9.1338 8 9.1338C6.94739 9.1338 5.91851 9.44645 5.04409 10.0321C4.16966 10.6177 3.48916 11.4499 3.08911 12.4229ZM13.107 11.4641L13.5376 12.2001L13.9696 11.4649C14.5853 10.417 14.9107 9.2241 14.9122 8.00889V8.00828C14.9122 6.17639 14.1838 4.41961 12.8875 3.12441C11.5912 1.82921 9.83308 1.10166 8 1.10166C6.16692 1.10166 4.40882 1.82921 3.1125 3.12441C1.81617 4.41961 1.08782 6.17639 1.08782 8.00828L1.08782 8.00889C1.08931 9.2241 1.41466 10.417 2.03039 11.4649L2.46238 12.2001L2.89303 11.4641C3.55326 10.3358 4.56947 9.45804 5.78256 8.96845L6.43809 8.70389L5.97029 8.17391C5.62587 7.78371 5.40149 7.30255 5.32403 6.78818C5.24656 6.27381 5.31929 5.74803 5.5335 5.2739C5.74772 4.79977 6.09434 4.39741 6.53184 4.11513C6.96935 3.83286 7.47913 3.68269 8 3.68269C8.52087 3.68269 9.03065 3.83286 9.46816 4.11513C9.90566 4.39741 10.2523 4.79977 10.4665 5.2739C10.6807 5.74803 10.7534 6.27381 10.676 6.78818C10.5985 7.30255 10.3741 7.78371 10.0297 8.17391L9.56191 8.70389L10.2174 8.96845C11.4305 9.45804 12.4467 10.3358 13.107 11.4641ZM3.8984 1.72676C5.1176 0.929183 6.54264 0.502951 8 0.500001C9.45736 0.502951 10.8824 0.929183 12.1016 1.72676C13.3211 2.52452 14.282 3.65933 14.8673 4.99293C15.4527 6.32652 15.6372 7.80138 15.3985 9.23788C15.1599 10.6742 14.5083 12.0103 13.5232 13.0833C12.8196 13.8452 11.9657 14.4532 11.0153 14.8691C10.0646 15.2852 9.03793 15.5 8 15.5C6.96207 15.5 5.9354 15.2852 4.9847 14.8691C4.03418 14.4532 3.18021 13.8451 2.47657 13.0831C1.49158 12.0101 0.840118 10.6741 0.601469 9.23788C0.362776 7.80138 0.547331 6.32652 1.13268 4.99293C1.71803 3.65933 2.67893 2.52452 3.8984 1.72676ZM6.25149 5.23884C6.02035 5.58447 5.89696 5.99086 5.89696 6.40662C5.89696 6.96416 6.11863 7.49877 6.51308 7.89287C6.90751 8.28696 7.44238 8.50828 8 8.50828C8.41585 8.50828 8.82239 8.38507 9.16822 8.1542C9.51406 7.92331 9.78367 7.59511 9.9429 7.21103C10.1021 6.82695 10.1438 6.40429 10.0626 5.99653C9.98144 5.58876 9.78107 5.21427 9.48692 4.92037C9.19278 4.62649 8.81807 4.42639 8.4102 4.34533C8.00234 4.26427 7.57957 4.30587 7.19534 4.46489C6.81111 4.6239 6.48263 4.89322 6.25149 5.23884Z" fill="white" stroke="white"/>
</svg>
