<svg width="16" height="15" viewBox="0 0 16 15" fill="none" xmlns="http://www.w3.org/2000/svg">
<path d="M8.22936 7.68118C8.61794 7.30082 8.92962 6.83038 9.14323 6.30178C9.35685 5.77319 9.46741 5.19882 9.4674 4.61765C9.4674 3.52558 9.08376 2.47824 8.40089 1.70603C7.71801 0.933822 6.79183 0.5 5.82609 0.5C4.86036 0.5 3.93418 0.933822 3.2513 1.70603C2.56842 2.47824 2.18478 3.52558 2.18478 4.61765C2.18478 5.19882 2.29534 5.77319 2.50895 6.30178C2.72257 6.83038 3.03425 7.30082 3.42283 7.68118C2.40336 8.2032 1.53843 9.0462 0.931432 10.1094C0.324437 11.1726 0.0010719 12.411 0 13.6765C0 13.8949 0.0767273 14.1044 0.213303 14.2588C0.349878 14.4132 0.535115 14.5 0.728262 14.5C0.921409 14.5 1.10664 14.4132 1.24322 14.2588C1.3798 14.1044 1.45652 13.8949 1.45652 13.6765C1.45652 12.366 1.91689 11.1092 2.73634 10.1825C3.55579 9.25588 4.66721 8.73529 5.82609 8.73529C6.98497 8.73529 8.09639 9.25588 8.91584 10.1825C9.7353 11.1092 10.1957 12.366 10.1957 13.6765C10.1957 13.8949 10.2724 14.1044 10.409 14.2588C10.5455 14.4132 10.7308 14.5 10.9239 14.5C11.1171 14.5 11.3023 14.4132 11.4389 14.2588C11.5755 14.1044 11.6522 13.8949 11.6522 13.6765C11.6511 12.411 11.3277 11.1726 10.7208 10.1094C10.1138 9.0462 9.24882 8.2032 8.22936 7.68118ZM5.82609 7.08824C5.39398 7.08824 4.97158 6.94334 4.61229 6.67187C4.25301 6.40039 3.97298 6.01454 3.80762 5.5631C3.64225 5.11166 3.59899 4.61491 3.68329 4.13566C3.76759 3.65641 3.97567 3.2162 4.28122 2.87068C4.58676 2.52516 4.97606 2.28986 5.39986 2.19453C5.82367 2.0992 6.26296 2.14813 6.66217 2.33512C7.06139 2.52211 7.40261 2.83878 7.64267 3.24506C7.88274 3.65135 8.01088 4.12901 8.01088 4.61765C8.01088 5.27289 7.7807 5.90129 7.37097 6.36462C6.96124 6.82794 6.40553 7.08824 5.82609 7.08824ZM12.9194 7.35176C13.3854 6.75827 13.6899 6.0251 13.796 5.24051C13.9022 4.45592 13.8056 3.65336 13.5178 2.92941C13.23 2.20547 12.7634 1.59101 12.174 1.16C11.5846 0.728982 10.8976 0.499788 10.1957 0.5C10.0025 0.5 9.81728 0.586765 9.6807 0.741206C9.54413 0.895648 9.4674 1.10512 9.4674 1.32353C9.4674 1.54194 9.54413 1.75141 9.6807 1.90585C9.81728 2.06029 10.0025 2.14706 10.1957 2.14706C10.7751 2.14706 11.3308 2.40735 11.7405 2.87068C12.1503 3.334 12.3804 3.96241 12.3804 4.61765C12.3794 5.0502 12.278 5.47486 12.0863 5.84917C11.8946 6.22348 11.6193 6.53431 11.2881 6.75059C11.1801 6.82102 11.0899 6.92161 11.0261 7.04273C10.9624 7.16385 10.9272 7.30145 10.9239 7.44235C10.9209 7.58216 10.9494 7.72054 11.0067 7.84445C11.064 7.96836 11.1483 8.07371 11.2516 8.15059L11.5357 8.36471L11.6303 8.42235C12.5082 8.89318 13.2488 9.63787 13.7649 10.5687C14.281 11.4996 14.5511 12.5778 14.5434 13.6765C14.5434 13.8949 14.6201 14.1044 14.7567 14.2588C14.8933 14.4132 15.0785 14.5 15.2716 14.5C15.4648 14.5 15.65 14.4132 15.7866 14.2588C15.9232 14.1044 15.9999 13.8949 15.9999 13.6765C16.0059 12.4127 15.726 11.1682 15.1868 10.0612C14.6476 8.95425 13.8671 8.02155 12.9194 7.35176Z" fill="#1640C1"/>
</svg>
