<svg width="5" height="7" viewBox="0 0 5 7" fill="none" xmlns="http://www.w3.org/2000/svg">
<path d="M4.79076 3.11396L1.11195 0.154917C1.05153 0.105829 0.979645 0.066867 0.900441 0.0402782C0.821237 0.0136894 0.736283 0 0.65048 0C0.564677 0 0.479723 0.0136894 0.400518 0.0402782C0.321314 0.066867 0.249428 0.105829 0.189005 0.154917C0.0679483 0.253043 0 0.385782 0 0.524143C0 0.662504 0.0679483 0.795243 0.189005 0.893369L3.40633 3.51199L0.189005 6.10443C0.0679483 6.20256 0 6.3353 0 6.47366C0 6.61202 0.0679483 6.74476 0.189005 6.84288C0.249201 6.89237 0.320986 6.93174 0.400201 6.95871C0.479416 6.98568 0.564485 6.99971 0.65048 7C0.736475 6.99971 0.821544 6.98568 0.900759 6.95871C0.979973 6.93174 1.05176 6.89237 1.11195 6.84288L4.79076 3.88384C4.85673 3.8348 4.90938 3.77527 4.9454 3.70902C4.98141 3.64277 5 3.57123 5 3.4989C5 3.42657 4.98141 3.35503 4.9454 3.28878C4.90938 3.22253 4.85673 3.16301 4.79076 3.11396Z" fill="#9EA5BD"/>
</svg>
