<svg width="17" height="18" viewBox="0 0 17 18" fill="none" xmlns="http://www.w3.org/2000/svg">
<path d="M6.81286 14.001C7.05848 14.001 7.29404 13.9132 7.46772 13.7569C7.64139 13.6006 7.73897 13.3886 7.73897 13.1675V8.16654C7.73897 7.94548 7.64139 7.73348 7.46772 7.57717C7.29404 7.42085 7.05848 7.33304 6.81286 7.33304C6.56724 7.33304 6.33168 7.42085 6.158 7.57717C5.98432 7.73348 5.88674 7.94548 5.88674 8.16654V13.1675C5.88674 13.3886 5.98432 13.6006 6.158 13.7569C6.33168 13.9132 6.56724 14.001 6.81286 14.001ZM16.074 3.99904H12.3695V3.16554C12.3695 2.50237 12.0768 1.86635 11.5558 1.39742C11.0347 0.928484 10.328 0.665039 9.59119 0.665039H7.73897C7.00211 0.665039 6.29543 0.928484 5.77439 1.39742C5.25335 1.86635 4.96063 2.50237 4.96063 3.16554V3.99904H1.25619C1.01057 3.99904 0.775009 4.08685 0.60133 4.24317C0.42765 4.39948 0.330078 4.61148 0.330078 4.83254C0.330078 5.0536 0.42765 5.2656 0.60133 5.42191C0.775009 5.57822 1.01057 5.66604 1.25619 5.66604H2.1823V14.8345C2.1823 15.4977 2.47502 16.1337 2.99606 16.6027C3.51709 17.0716 4.22377 17.335 4.96063 17.335H12.3695C13.1064 17.335 13.8131 17.0716 14.3341 16.6027C14.8551 16.1337 15.1479 15.4977 15.1479 14.8345V5.66604H16.074C16.3196 5.66604 16.5551 5.57822 16.7288 5.42191C16.9025 5.2656 17.0001 5.0536 17.0001 4.83254C17.0001 4.61148 16.9025 4.39948 16.7288 4.24317C16.5551 4.08685 16.3196 3.99904 16.074 3.99904ZM6.81286 3.16554C6.81286 2.94448 6.91043 2.73248 7.08411 2.57617C7.25779 2.41985 7.49335 2.33204 7.73897 2.33204H9.59119C9.83681 2.33204 10.0724 2.41985 10.246 2.57617C10.4197 2.73248 10.5173 2.94448 10.5173 3.16554V3.99904H6.81286V3.16554ZM13.2956 14.8345C13.2956 15.0556 13.1981 15.2676 13.0244 15.4239C12.8507 15.5802 12.6151 15.668 12.3695 15.668H4.96063C4.71501 15.668 4.47945 15.5802 4.30577 15.4239C4.13209 15.2676 4.03452 15.0556 4.03452 14.8345V5.66604H13.2956V14.8345ZM10.5173 14.001C10.7629 14.001 10.9985 13.9132 11.1722 13.7569C11.3458 13.6006 11.4434 13.3886 11.4434 13.1675V8.16654C11.4434 7.94548 11.3458 7.73348 11.1722 7.57717C10.9985 7.42085 10.7629 7.33304 10.5173 7.33304C10.2717 7.33304 10.0361 7.42085 9.86244 7.57717C9.68876 7.73348 9.59119 7.94548 9.59119 8.16654V13.1675C9.59119 13.3886 9.68876 13.6006 9.86244 13.7569C10.0361 13.9132 10.2717 14.001 10.5173 14.001Z" fill="#424866"/>
</svg>
