<svg width="10" height="10" viewBox="0 0 10 10" fill="none" xmlns="http://www.w3.org/2000/svg">
<path d="M1.7148 0.293801C1.62162 0.200655 1.51099 0.126767 1.38924 0.0763567C1.26749 0.0259462 1.137 9.81459e-10 1.00522 0C0.873433 -9.81455e-10 0.74294 0.0259462 0.621189 0.0763567C0.499438 0.126767 0.388811 0.200655 0.295627 0.293801C0.202442 0.386948 0.128525 0.497528 0.0780936 0.61923C0.0276625 0.740932 0.00170561 0.871371 0.00170561 1.0031C0.00170561 1.13483 0.0276625 1.26527 0.0780936 1.38697C0.128525 1.50867 0.202442 1.61925 0.295627 1.7124L3.59371 4.99915L0.295627 8.2859C0.201953 8.37877 0.127602 8.48926 0.0768626 8.611C0.0261233 8.73274 0 8.86331 0 8.9952C0 9.12708 0.0261233 9.25765 0.0768626 9.37939C0.127602 9.50113 0.201953 9.61162 0.295627 9.70449C0.388536 9.79813 0.499073 9.87245 0.620862 9.92317C0.74265 9.97389 0.87328 10 1.00522 10C1.13715 10 1.26778 9.97389 1.38957 9.92317C1.51136 9.87245 1.62189 9.79813 1.7148 9.70449L5.71249 5.70845C5.80616 5.61558 5.88051 5.50508 5.93125 5.38334C5.98199 5.26161 6.00811 5.13103 6.00811 4.99915C6.00811 4.86727 5.98199 4.73669 5.93125 4.61495C5.88051 4.49321 5.80616 4.38272 5.71249 4.28985L1.7148 0.293801ZM9.00058 0.0040877C8.73552 0.0040877 8.48131 0.109341 8.29388 0.296692C8.10645 0.484043 8.00116 0.738145 8.00116 1.0031V8.9952C8.00116 9.26015 8.10645 9.51425 8.29388 9.7016C8.48131 9.88896 8.73552 9.99421 9.00058 9.99421C9.26564 9.99421 9.51985 9.88896 9.70728 9.7016C9.8947 9.51425 10 9.26015 10 8.9952V1.0031C10 0.738145 9.8947 0.484043 9.70728 0.296692C9.51985 0.109341 9.26564 0.0040877 9.00058 0.0040877Z" fill="#030303"/>
</svg>
