<svg width="12" height="12" viewBox="0 0 12 12" fill="none" xmlns="http://www.w3.org/2000/svg">
<path d="M3.00019 7.20005C3.00019 7.53142 3.26882 7.80005 3.60019 7.80005C3.93157 7.80005 4.20019 7.53142 4.20019 7.20005L4.2002 3.84858L4.97593 4.62431C5.21025 4.85863 5.59015 4.85863 5.82446 4.62431C6.05877 4.39 6.05877 4.0101 5.82446 3.77579L4.02446 1.97578C3.91194 1.86326 3.75933 1.80005 3.6002 1.80005C3.44107 1.80005 3.28845 1.86326 3.17593 1.97578L1.37593 3.77578C1.14162 4.0101 1.14162 4.39 1.37593 4.62431C1.61025 4.85863 1.99014 4.85863 2.22446 4.62431L3.00019 3.84858L3.00019 7.20005Z" fill="#52AC66"/>
<path d="M9 4.79995C9 4.46858 8.73137 4.19995 8.4 4.19995C8.06863 4.19995 7.8 4.46858 7.8 4.79995L7.8 8.15142L7.02426 7.37569C6.78995 7.14137 6.41005 7.14137 6.17574 7.37569C5.94142 7.61 5.94142 7.9899 6.17574 8.22421L7.97574 10.0242C8.08826 10.1367 8.24087 10.2 8.4 10.2C8.55913 10.2 8.71174 10.1367 8.82426 10.0242L10.6243 8.22422C10.8586 7.9899 10.8586 7.61 10.6243 7.37569C10.3899 7.14137 10.0101 7.14137 9.77574 7.37569L9 8.15142L9 4.79995Z" fill="#666E7D"/>
</svg>
