<svg width="20" height="17" viewBox="0 0 20 17" fill="none" xmlns="http://www.w3.org/2000/svg">
<path d="M15 14.2992H2V5.2992H4.595C4.595 5.2992 5.284 4.4032 6.765 3.2992H1C0.734784 3.2992 0.48043 3.40455 0.292893 3.59209C0.105357 3.77963 0 4.03398 0 4.2992L0 15.2992C0 15.5644 0.105357 15.8188 0.292893 16.0063C0.48043 16.1938 0.734784 16.2992 1 16.2992H16C16.2652 16.2992 16.5196 16.1938 16.7071 16.0063C16.8946 15.8188 17 15.5644 17 15.2992V11.5532L15 13.1982V14.2992ZM13.361 7.3492V10.9002L20 5.6992L13.361 0.700195V3.8312C5.3 3.8312 5.3 11.7992 5.3 11.7992C7.582 8.0512 8.986 7.3492 13.361 7.3492Z" fill="#1640C1"/>
</svg>
