<svg width="14" height="15" viewBox="0 0 14 15" fill="none" xmlns="http://www.w3.org/2000/svg">
<path d="M7.20069 7.68118C7.5407 7.30082 7.81341 6.83038 8.00033 6.30178C8.18724 5.77319 8.28398 5.19882 8.28398 4.61765C8.28398 3.52558 7.94829 2.47824 7.35078 1.70603C6.75326 0.933822 5.94285 0.5 5.09783 0.5C4.25281 0.5 3.4424 0.933822 2.84489 1.70603C2.24737 2.47824 1.91169 3.52558 1.91169 4.61765C1.91168 5.19882 2.00842 5.77319 2.19533 6.30178C2.38225 6.83038 2.65496 7.30082 2.99498 7.68118C2.10294 8.2032 1.34612 9.0462 0.815003 10.1094C0.283882 11.1726 0.000937908 12.411 0 13.6765C0 13.8949 0.0671364 14.1044 0.18664 14.2588C0.306144 14.4132 0.468225 14.5 0.637229 14.5C0.806233 14.5 0.968314 14.4132 1.08782 14.2588C1.20732 14.1044 1.27446 13.8949 1.27446 13.6765C1.27446 12.366 1.67728 11.1092 2.3943 10.1825C3.11132 9.25588 4.08381 8.73529 5.09783 8.73529C6.11185 8.73529 7.08434 9.25588 7.80136 10.1825C8.51839 11.1092 8.9212 12.366 8.9212 13.6765C8.9212 13.8949 8.98834 14.1044 9.10785 14.2588C9.22735 14.4132 9.38943 14.5 9.55843 14.5C9.72744 14.5 9.88952 14.4132 10.009 14.2588C10.1285 14.1044 10.1957 13.8949 10.1957 13.6765C10.1947 12.411 9.91178 11.1726 9.38066 10.1094C8.84954 9.0462 8.09272 8.2032 7.20069 7.68118ZM5.09783 7.08824C4.71974 7.08824 4.35013 6.94334 4.03575 6.67187C3.72138 6.40039 3.47635 6.01454 3.33166 5.5631C3.18697 5.11166 3.14911 4.61491 3.22288 4.13566C3.29664 3.65641 3.47871 3.2162 3.74606 2.87068C4.01342 2.52516 4.35405 2.28986 4.72488 2.19453C5.09571 2.0992 5.48009 2.14813 5.8294 2.33512C6.17872 2.52211 6.47728 2.83878 6.68734 3.24506C6.8974 3.65135 7.00952 4.12901 7.00952 4.61765C7.00952 5.27289 6.80811 5.90129 6.4496 6.36462C6.09109 6.82794 5.60484 7.08824 5.09783 7.08824ZM11.3044 7.35176C11.7122 6.75827 11.9786 6.0251 12.0715 5.24051C12.1644 4.45592 12.0799 3.65336 11.8281 2.92941C11.5763 2.20547 11.1679 1.59101 10.6522 1.16C10.1365 0.728982 9.53537 0.499788 8.9212 0.5C8.7522 0.5 8.59012 0.586765 8.47062 0.741206C8.35111 0.895648 8.28398 1.10512 8.28398 1.32353C8.28398 1.54194 8.35111 1.75141 8.47062 1.90585C8.59012 2.06029 8.7522 2.14706 8.9212 2.14706C9.42822 2.14706 9.91446 2.40735 10.273 2.87068C10.6315 3.334 10.8329 3.96241 10.8329 4.61765C10.832 5.0502 10.7432 5.47486 10.5755 5.84917C10.4078 6.22348 10.1669 6.53431 9.87705 6.75059C9.78257 6.82102 9.70366 6.92161 9.64788 7.04273C9.59209 7.16385 9.56129 7.30145 9.55843 7.44235C9.55577 7.58216 9.58069 7.72054 9.63086 7.84445C9.68103 7.96836 9.75479 8.07371 9.84519 8.15059L10.0937 8.36471L10.1765 8.42235C10.9447 8.89318 11.5927 9.63787 12.0442 10.5687C12.4958 11.4996 12.7322 12.5778 12.7255 13.6765C12.7255 13.8949 12.7926 14.1044 12.9121 14.2588C13.0316 14.4132 13.1937 14.5 13.3627 14.5C13.5317 14.5 13.6938 14.4132 13.8133 14.2588C13.9328 14.1044 13.9999 13.8949 13.9999 13.6765C14.0051 12.4127 13.7602 11.1682 13.2884 10.0612C12.8167 8.95425 12.1337 8.02155 11.3044 7.35176Z" fill="black"/>
</svg>
