<svg width="14" height="15" viewBox="0 0 14 15" fill="none" xmlns="http://www.w3.org/2000/svg">
<path d="M7 0.5C3.136 0.5 0 3.636 0 7.5C0 11.364 3.136 14.5 7 14.5C10.864 14.5 14 11.364 14 7.5C14 3.636 10.864 0.5 7 0.5ZM12.222 5.484L10.276 6.289C10.1007 5.81729 9.82532 5.3891 9.46887 5.03386C9.11242 4.67862 8.68331 4.40473 8.211 4.231L9.016 2.285C10.486 2.845 11.655 4.014 12.222 5.484ZM7 9.6C5.838 9.6 4.9 8.662 4.9 7.5C4.9 6.338 5.838 5.4 7 5.4C8.162 5.4 9.1 6.338 9.1 7.5C9.1 8.662 8.162 9.6 7 9.6ZM4.991 2.278L5.81 4.224C5.33212 4.39815 4.89794 4.67437 4.53768 5.03341C4.17743 5.39246 3.89976 5.82571 3.724 6.303L1.778 5.491C2.05869 4.7603 2.48974 4.09672 3.04323 3.54323C3.59672 2.98974 4.2603 2.55869 4.991 2.278ZM1.778 9.509L3.724 8.704C3.89854 9.18005 4.17506 9.61217 4.53418 9.97009C4.89332 10.328 5.32637 10.6031 5.803 10.776L4.984 12.722C4.25486 12.44 3.59288 12.0084 3.0407 11.4551C2.48851 10.9017 2.05838 10.2387 1.778 9.509ZM9.016 12.722L8.211 10.776C8.68551 10.6002 9.11604 10.3231 9.47265 9.96411C9.82926 9.60508 10.1034 9.17269 10.276 8.697L12.222 9.516C11.9404 10.2442 11.5097 10.9056 10.9576 11.4576C10.4056 12.0097 9.74421 12.4404 9.016 12.722Z" fill="black"/>
</svg>
