<svg width="14" height="15" viewBox="0 0 14 15" fill="none" xmlns="http://www.w3.org/2000/svg">
<path d="M13 8.5H8V13.5C8 13.7652 7.89464 14.0196 7.70711 14.2071C7.51957 14.3946 7.26522 14.5 7 14.5C6.73478 14.5 6.48043 14.3946 6.29289 14.2071C6.10536 14.0196 6 13.7652 6 13.5V8.5H1C0.734784 8.5 0.48043 8.39464 0.292893 8.20711C0.105357 8.01957 0 7.76522 0 7.5C0 7.23478 0.105357 6.98043 0.292893 6.79289C0.48043 6.60536 0.734784 6.5 1 6.5H6V1.5C6 1.23478 6.10536 0.980429 6.29289 0.792893C6.48043 0.605357 6.73478 0.5 7 0.5C7.26522 0.5 7.51957 0.605357 7.70711 0.792893C7.89464 0.980429 8 1.23478 8 1.5V6.5H13C13.2652 6.5 13.5196 6.60536 13.7071 6.79289C13.8946 6.98043 14 7.23478 14 7.5C14 7.76522 13.8946 8.01957 13.7071 8.20711C13.5196 8.39464 13.2652 8.5 13 8.5Z" fill="white"/>
</svg>
